# Blender 4.3.2
# www.blender.org
mtllib repere_axis_evo_motion.mtl
o Cube
v 1.500000 0.020000 -0.020000
v 1.500000 -0.020000 -0.020000
v 1.500000 0.020000 0.020000
v 1.500000 -0.020000 0.020000
v -1.500000 0.020000 -0.020000
v -1.500000 -0.020000 -0.020000
v -1.500000 0.020000 0.020000
v -1.500000 -0.020000 0.020000
vn -0.0000 1.0000 -0.0000
vn -0.0000 -0.0000 1.0000
vn -1.0000 -0.0000 -0.0000
vn -0.0000 -1.0000 -0.0000
vn 1.0000 -0.0000 -0.0000
vn -0.0000 -0.0000 -1.0000
s 0
usemtl Material.001
f 5//1 3//1 1//1
f 3//2 8//2 4//2
f 7//3 6//3 8//3
f 2//4 8//4 6//4
f 1//5 4//5 2//5
f 5//6 2//6 6//6
f 5//1 7//1 3//1
f 3//2 7//2 8//2
f 7//3 5//3 6//3
f 2//4 4//4 8//4
f 1//5 3//5 4//5
f 5//6 1//6 2//6
o Cube.001
v 0.020000 -1.500000 -0.020000
v -0.020000 -1.500000 -0.020000
v 0.020000 -1.500000 0.020000
v -0.020000 -1.500000 0.020000
v 0.020000 1.500000 -0.020000
v -0.020000 1.500000 -0.020000
v 0.020000 1.500000 0.020000
v -0.020000 1.500000 0.020000
vn 1.0000 -0.0000 -0.0000
vn -0.0000 -0.0000 1.0000
vn -0.0000 1.0000 -0.0000
vn -1.0000 -0.0000 -0.0000
vn -0.0000 -1.0000 -0.0000
vn -0.0000 -0.0000 -1.0000
s 0
usemtl Material.003
f 13//7 11//7 9//7
f 11//8 16//8 12//8
f 15//9 14//9 16//9
f 10//10 16//10 14//10
f 9//11 12//11 10//11
f 13//12 10//12 14//12
f 13//7 15//7 11//7
f 11//8 15//8 16//8
f 15//9 13//9 14//9
f 10//10 12//10 16//10
f 9//11 11//11 12//11
f 13//12 9//12 10//12
o Cube.002
v -0.020000 0.020000 -1.500000
v -0.020000 -0.020000 -1.500000
v 0.020000 0.020000 -1.500000
v 0.020000 -0.020000 -1.500000
v -0.020000 0.020000 1.500000
v -0.020000 -0.020000 1.500000
v 0.020000 0.020000 1.500000
v 0.020000 -0.020000 1.500000
vn -0.0000 1.0000 -0.0000
vn 1.0000 -0.0000 -0.0000
vn -0.0000 -0.0000 1.0000
vn -0.0000 -1.0000 -0.0000
vn -0.0000 -0.0000 -1.0000
vn -1.0000 -0.0000 -0.0000
s 0
usemtl Material
f 21//13 19//13 17//13
f 19//14 24//14 20//14
f 23//15 22//15 24//15
f 18//16 24//16 22//16
f 17//17 20//17 18//17
f 21//18 18//18 22//18
f 21//13 23//13 19//13
f 19//14 23//14 24//14
f 23//15 21//15 22//15
f 18//16 20//16 24//16
f 17//17 19//17 20//17
f 21//18 17//18 18//18
o Cone
v 1.500000 0.000000 -0.080000
v 1.500000 -0.015607 -0.078463
v 1.500000 -0.030615 -0.073910
v 1.500000 -0.044446 -0.066518
v 1.500000 -0.056569 -0.056569
v 1.500000 -0.066518 -0.044446
v 1.500000 -0.073910 -0.030615
v 1.500000 -0.078463 -0.015607
v 1.500000 -0.080000 0.000000
v 1.500000 -0.078463 0.015607
v 1.500000 -0.073910 0.030615
v 1.500000 -0.066518 0.044446
v 1.500000 -0.056569 0.056569
v 1.500000 -0.044446 0.066518
v 1.500000 -0.030615 0.073910
v 1.500000 -0.015607 0.078463
v 1.500000 0.000000 0.080000
v 1.500000 0.015607 0.078463
v 1.500000 0.030615 0.073910
v 1.500000 0.044446 0.066518
v 1.500000 0.056569 0.056569
v 1.500000 0.066518 0.044446
v 1.500000 0.073910 0.030615
v 1.500000 0.078463 0.015607
v 1.500000 0.080000 0.000000
v 1.500000 0.078463 -0.015607
v 1.500000 0.073910 -0.030615
v 1.500000 0.066518 -0.044446
v 1.500000 0.056569 -0.056569
v 1.500000 0.044446 -0.066518
v 1.500000 0.030615 -0.073910
v 1.500000 0.015607 -0.078463
v 1.660000 -0.000000 0.000000
vn 0.4455 -0.0878 -0.8910
vn 0.4455 -0.2599 -0.8567
vn 0.4455 -0.4220 -0.7896
vn 0.4455 -0.5680 -0.6921
vn 0.4455 -0.6921 -0.5680
vn 0.4455 -0.7896 -0.4220
vn 0.4455 -0.8567 -0.2599
vn 0.4455 -0.8910 -0.0878
vn 0.4455 -0.8910 0.0878
vn 0.4455 -0.8567 0.2599
vn 0.4455 -0.7896 0.4220
vn 0.4455 -0.6921 0.5680
vn 0.4455 -0.5680 0.6921
vn 0.4455 -0.4220 0.7896
vn 0.4455 -0.2599 0.8567
vn 0.4455 -0.0878 0.8910
vn 0.4455 0.0878 0.8910
vn 0.4455 0.2599 0.8567
vn 0.4455 0.4220 0.7896
vn 0.4455 0.5680 0.6921
vn 0.4455 0.6921 0.5680
vn 0.4455 0.7896 0.4220
vn 0.4455 0.8567 0.2599
vn 0.4455 0.8910 0.0878
vn 0.4455 0.8910 -0.0878
vn 0.4455 0.8567 -0.2599
vn 0.4455 0.7896 -0.4220
vn 0.4455 0.6921 -0.5680
vn 0.4455 0.5680 -0.6921
vn 0.4455 0.4220 -0.7896
vn -1.0000 -0.0000 -0.0000
vn 0.4455 0.2599 -0.8567
vn 0.4455 0.0878 -0.8910
s 0
usemtl Material.001
f 25//19 57//19 26//19
f 26//20 57//20 27//20
f 27//21 57//21 28//21
f 28//22 57//22 29//22
f 29//23 57//23 30//23
f 30//24 57//24 31//24
f 31//25 57//25 32//25
f 32//26 57//26 33//26
f 33//27 57//27 34//27
f 34//28 57//28 35//28
f 35//29 57//29 36//29
f 36//30 57//30 37//30
f 37//31 57//31 38//31
f 38//32 57//32 39//32
f 39//33 57//33 40//33
f 40//34 57//34 41//34
f 41//35 57//35 42//35
f 42//36 57//36 43//36
f 43//37 57//37 44//37
f 44//38 57//38 45//38
f 45//39 57//39 46//39
f 46//40 57//40 47//40
f 47//41 57//41 48//41
f 48//42 57//42 49//42
f 49//43 57//43 50//43
f 50//44 57//44 51//44
f 51//45 57//45 52//45
f 52//46 57//46 53//46
f 53//47 57//47 54//47
f 54//48 57//48 55//48
f 40//49 48//49 56//49
f 55//50 57//50 56//50
f 56//51 57//51 25//51
f 56//49 25//49 26//49
f 26//49 27//49 28//49
f 28//49 29//49 30//49
f 30//49 31//49 32//49
f 32//49 33//49 34//49
f 34//49 35//49 36//49
f 36//49 37//49 38//49
f 38//49 39//49 40//49
f 40//49 41//49 42//49
f 42//49 43//49 44//49
f 44//49 45//49 46//49
f 46//49 47//49 48//49
f 48//49 49//49 50//49
f 50//49 51//49 52//49
f 52//49 53//49 54//49
f 54//49 55//49 56//49
f 56//49 26//49 32//49
f 26//49 28//49 32//49
f 28//49 30//49 32//49
f 32//49 34//49 40//49
f 34//49 36//49 40//49
f 36//49 38//49 40//49
f 40//49 42//49 48//49
f 42//49 44//49 48//49
f 44//49 46//49 48//49
f 48//49 50//49 56//49
f 50//49 52//49 56//49
f 52//49 54//49 56//49
f 56//49 32//49 40//49
o Cone.001
v 0.000000 1.500000 -0.080000
v 0.015607 1.500000 -0.078463
v 0.030615 1.500000 -0.073910
v 0.044446 1.500000 -0.066518
v 0.056569 1.500000 -0.056569
v 0.066518 1.500000 -0.044446
v 0.073910 1.500000 -0.030615
v 0.078463 1.500000 -0.015607
v 0.080000 1.500000 0.000000
v 0.078463 1.500000 0.015607
v 0.073910 1.500000 0.030615
v 0.066518 1.500000 0.044446
v 0.056569 1.500000 0.056569
v 0.044446 1.500000 0.066518
v 0.030615 1.500000 0.073910
v 0.015607 1.500000 0.078463
v 0.000000 1.500000 0.080000
v -0.015607 1.500000 0.078463
v -0.030615 1.500000 0.073910
v -0.044446 1.500000 0.066518
v -0.056569 1.500000 0.056569
v -0.066518 1.500000 0.044446
v -0.073910 1.500000 0.030615
v -0.078463 1.500000 0.015607
v -0.080000 1.500000 0.000000
v -0.078463 1.500000 -0.015607
v -0.073910 1.500000 -0.030615
v -0.066518 1.500000 -0.044446
v -0.056569 1.500000 -0.056569
v -0.044446 1.500000 -0.066518
v -0.030615 1.500000 -0.073910
v -0.015607 1.500000 -0.078463
v 0.000000 1.660000 0.000000
vn 0.0878 0.4455 -0.8910
vn 0.2599 0.4455 -0.8567
vn 0.4220 0.4455 -0.7896
vn 0.5680 0.4455 -0.6921
vn 0.6921 0.4455 -0.5680
vn 0.7896 0.4455 -0.4220
vn 0.8567 0.4455 -0.2599
vn 0.8910 0.4455 -0.0878
vn 0.8910 0.4455 0.0878
vn 0.8567 0.4455 0.2599
vn 0.7896 0.4455 0.4220
vn 0.6921 0.4455 0.5680
vn 0.5680 0.4455 0.6921
vn 0.4220 0.4455 0.7896
vn 0.2599 0.4455 0.8567
vn 0.0878 0.4455 0.8910
vn -0.0878 0.4455 0.8910
vn -0.2599 0.4455 0.8567
vn -0.4220 0.4455 0.7896
vn -0.5680 0.4455 0.6921
vn -0.6921 0.4455 0.5680
vn -0.7896 0.4455 0.4220
vn -0.8567 0.4455 0.2599
vn -0.8910 0.4455 0.0878
vn -0.8910 0.4455 -0.0878
vn -0.8567 0.4455 -0.2599
vn -0.7896 0.4455 -0.4220
vn -0.6921 0.4455 -0.5680
vn -0.5680 0.4455 -0.6921
vn -0.4220 0.4455 -0.7896
vn -0.0000 -1.0000 -0.0000
vn -0.2599 0.4455 -0.8567
vn -0.0878 0.4455 -0.8910
s 0
usemtl Material.003
f 58//52 90//52 59//52
f 59//53 90//53 60//53
f 60//54 90//54 61//54
f 61//55 90//55 62//55
f 62//56 90//56 63//56
f 63//57 90//57 64//57
f 64//58 90//58 65//58
f 65//59 90//59 66//59
f 66//60 90//60 67//60
f 67//61 90//61 68//61
f 68//62 90//62 69//62
f 69//63 90//63 70//63
f 70//64 90//64 71//64
f 71//65 90//65 72//65
f 72//66 90//66 73//66
f 73//67 90//67 74//67
f 74//68 90//68 75//68
f 75//69 90//69 76//69
f 76//70 90//70 77//70
f 77//71 90//71 78//71
f 78//72 90//72 79//72
f 79//73 90//73 80//73
f 80//74 90//74 81//74
f 81//75 90//75 82//75
f 82//76 90//76 83//76
f 83//77 90//77 84//77
f 84//78 90//78 85//78
f 85//79 90//79 86//79
f 86//80 90//80 87//80
f 87//81 90//81 88//81
f 73//82 81//82 89//82
f 88//83 90//83 89//83
f 89//84 90//84 58//84
f 89//82 58//82 59//82
f 59//82 60//82 61//82
f 61//82 62//82 63//82
f 63//82 64//82 65//82
f 65//82 66//82 67//82
f 67//82 68//82 69//82
f 69//82 70//82 71//82
f 71//82 72//82 73//82
f 73//82 74//82 75//82
f 75//82 76//82 77//82
f 77//82 78//82 79//82
f 79//82 80//82 81//82
f 81//82 82//82 83//82
f 83//82 84//82 85//82
f 85//82 86//82 87//82
f 87//82 88//82 89//82
f 89//82 59//82 65//82
f 59//82 61//82 65//82
f 61//82 63//82 65//82
f 65//82 67//82 73//82
f 67//82 69//82 73//82
f 69//82 71//82 73//82
f 73//82 75//82 81//82
f 75//82 77//82 81//82
f 77//82 79//82 81//82
f 81//82 83//82 89//82
f 83//82 85//82 89//82
f 85//82 87//82 89//82
f 89//82 65//82 73//82
o Cone.002
v 0.000000 -0.080000 -1.500000
v 0.015607 -0.078463 -1.500000
v 0.030615 -0.073910 -1.500000
v 0.044446 -0.066518 -1.500000
v 0.056569 -0.056569 -1.500000
v 0.066518 -0.044446 -1.500000
v 0.073910 -0.030615 -1.500000
v 0.078463 -0.015607 -1.500000
v 0.080000 0.000000 -1.500000
v 0.078463 0.015607 -1.500000
v 0.073910 0.030615 -1.500000
v 0.066518 0.044446 -1.500000
v 0.056569 0.056569 -1.500000
v 0.044446 0.066518 -1.500000
v 0.030615 0.073910 -1.500000
v 0.015607 0.078463 -1.500000
v 0.000000 0.080000 -1.500000
v -0.015607 0.078463 -1.500000
v -0.030615 0.073910 -1.500000
v -0.044446 0.066518 -1.500000
v -0.056569 0.056569 -1.500000
v -0.066518 0.044446 -1.500000
v -0.073910 0.030615 -1.500000
v -0.078463 0.015607 -1.500000
v -0.080000 0.000000 -1.500000
v -0.078463 -0.015607 -1.500000
v -0.073910 -0.030615 -1.500000
v -0.066518 -0.044446 -1.500000
v -0.056569 -0.056569 -1.500000
v -0.044446 -0.066518 -1.500000
v -0.030615 -0.073910 -1.500000
v -0.015607 -0.078463 -1.500000
v 0.000000 -0.000000 -1.660000
vn 0.0878 -0.8910 -0.4455
vn 0.2599 -0.8567 -0.4455
vn 0.4220 -0.7896 -0.4455
vn 0.5680 -0.6921 -0.4455
vn 0.6921 -0.5680 -0.4455
vn 0.7896 -0.4220 -0.4455
vn 0.8567 -0.2599 -0.4455
vn 0.8910 -0.0878 -0.4455
vn 0.8910 0.0878 -0.4455
vn 0.8567 0.2599 -0.4455
vn 0.7896 0.4220 -0.4455
vn 0.6921 0.5680 -0.4455
vn 0.5680 0.6921 -0.4455
vn 0.4220 0.7896 -0.4455
vn 0.2599 0.8567 -0.4455
vn 0.0878 0.8910 -0.4455
vn -0.0878 0.8910 -0.4455
vn -0.2599 0.8567 -0.4455
vn -0.4220 0.7896 -0.4455
vn -0.5680 0.6921 -0.4455
vn -0.6921 0.5680 -0.4455
vn -0.7896 0.4220 -0.4455
vn -0.8567 0.2599 -0.4455
vn -0.8910 0.0878 -0.4455
vn -0.8910 -0.0878 -0.4455
vn -0.8567 -0.2599 -0.4455
vn -0.7896 -0.4220 -0.4455
vn -0.6921 -0.5680 -0.4455
vn -0.5680 -0.6921 -0.4455
vn -0.4220 -0.7896 -0.4455
vn -0.0000 -0.0000 1.0000
vn -0.2599 -0.8567 -0.4455
vn -0.0878 -0.8910 -0.4455
s 0
usemtl Material.002
f 91//85 123//85 92//85
f 92//86 123//86 93//86
f 93//87 123//87 94//87
f 94//88 123//88 95//88
f 95//89 123//89 96//89
f 96//90 123//90 97//90
f 97//91 123//91 98//91
f 98//92 123//92 99//92
f 99//93 123//93 100//93
f 100//94 123//94 101//94
f 101//95 123//95 102//95
f 102//96 123//96 103//96
f 103//97 123//97 104//97
f 104//98 123//98 105//98
f 105//99 123//99 106//99
f 106//100 123//100 107//100
f 107//101 123//101 108//101
f 108//102 123//102 109//102
f 109//103 123//103 110//103
f 110//104 123//104 111//104
f 111//105 123//105 112//105
f 112//106 123//106 113//106
f 113//107 123//107 114//107
f 114//108 123//108 115//108
f 115//109 123//109 116//109
f 116//110 123//110 117//110
f 117//111 123//111 118//111
f 118//112 123//112 119//112
f 119//113 123//113 120//113
f 120//114 123//114 121//114
f 106//115 114//115 122//115
f 121//116 123//116 122//116
f 122//117 123//117 91//117
f 122//115 91//115 92//115
f 92//115 93//115 94//115
f 94//115 95//115 96//115
f 96//115 97//115 98//115
f 98//115 99//115 100//115
f 100//115 101//115 102//115
f 102//115 103//115 104//115
f 104//115 105//115 106//115
f 106//115 107//115 108//115
f 108//115 109//115 110//115
f 110//115 111//115 112//115
f 112//115 113//115 114//115
f 114//115 115//115 116//115
f 116//115 117//115 118//115
f 118//115 119//115 120//115
f 120//115 121//115 122//115
f 122//115 92//115 98//115
f 92//115 94//115 98//115
f 94//115 96//115 98//115
f 98//115 100//115 106//115
f 100//115 102//115 106//115
f 102//115 104//115 106//115
f 106//115 108//115 114//115
f 108//115 110//115 114//115
f 110//115 112//115 114//115
f 114//115 116//115 122//115
f 116//115 118//115 122//115
f 118//115 120//115 122//115
f 122//115 98//115 106//115
