# Blender 4.3.2
# www.blender.org
o Cube
v 0.100000 2.000000 0.100000
v 0.100000 2.000000 -0.100000
v 0.100000 0.000000 0.100000
v 0.100000 0.000000 -0.100000
v -0.100000 2.000000 0.100000
v -0.100000 2.000000 -0.100000
v -0.100000 0.000000 0.100000
v -0.100000 0.000000 -0.100000
vn -0.0000 -0.0000 1.0000
vn -0.0000 -1.0000 -0.0000
vn -1.0000 -0.0000 -0.0000
vn -0.0000 -0.0000 -1.0000
vn 1.0000 -0.0000 -0.0000
vn -0.0000 1.0000 -0.0000
s 0
f 5//1 3//1 1//1
f 3//2 8//2 4//2
f 7//3 6//3 8//3
f 2//4 8//4 6//4
f 1//5 4//5 2//5
f 5//6 2//6 6//6
f 5//1 7//1 3//1
f 3//2 7//2 8//2
f 7//3 5//3 6//3
f 2//4 4//4 8//4
f 1//5 3//5 4//5
f 5//6 1//6 2//6
o Cone
v 0.000000 1.850000 -0.100000
v 0.000000 1.830491 -0.098079
v 0.000000 1.811732 -0.092388
v 0.000000 1.794443 -0.083147
v 0.000000 1.779289 -0.070711
v 0.000000 1.766853 -0.055557
v 0.000000 1.757612 -0.038268
v 0.000000 1.751922 -0.019509
v 0.000000 1.750000 0.000000
v 0.000000 1.751922 0.019509
v 0.000000 1.757612 0.038268
v 0.000000 1.766853 0.055557
v 0.000000 1.779289 0.070711
v 0.000000 1.794443 0.083147
v 0.000000 1.811732 0.092388
v 0.000000 1.830491 0.098079
v 0.000000 1.850000 0.100000
v 0.000000 1.869509 0.098079
v 0.000000 1.888268 0.092388
v 0.000000 1.905557 0.083147
v 0.000000 1.920711 0.070711
v 0.000000 1.933147 0.055557
v 0.000000 1.942388 0.038268
v 0.000000 1.948079 0.019509
v 0.000000 1.950000 0.000000
v 0.000000 1.948079 -0.019509
v 0.000000 1.942388 -0.038268
v 0.000000 1.933147 -0.055557
v 0.000000 1.920711 -0.070711
v 0.000000 1.905557 -0.083147
v 0.000000 1.888268 -0.092388
v 0.000000 1.869509 -0.098079
v 0.600000 1.850000 0.000000
vn 0.1636 -0.0967 -0.9818
vn 0.1636 -0.2864 -0.9440
vn 0.1636 -0.4650 -0.8700
vn 0.1636 -0.6258 -0.7626
vn 0.1636 -0.7626 -0.6258
vn 0.1636 -0.8700 -0.4650
vn 0.1636 -0.9440 -0.2864
vn 0.1636 -0.9818 -0.0967
vn 0.1636 -0.9818 0.0967
vn 0.1636 -0.9440 0.2864
vn 0.1636 -0.8700 0.4650
vn 0.1636 -0.7626 0.6258
vn 0.1636 -0.6258 0.7626
vn 0.1636 -0.4650 0.8700
vn 0.1636 -0.2864 0.9440
vn 0.1636 -0.0967 0.9818
vn 0.1636 0.0967 0.9818
vn 0.1636 0.2864 0.9440
vn 0.1636 0.4650 0.8700
vn 0.1636 0.6258 0.7626
vn 0.1636 0.7626 0.6258
vn 0.1636 0.8700 0.4650
vn 0.1636 0.9440 0.2864
vn 0.1636 0.9818 0.0967
vn 0.1636 0.9818 -0.0967
vn 0.1636 0.9440 -0.2864
vn 0.1636 0.8700 -0.4650
vn 0.1636 0.7626 -0.6258
vn 0.1636 0.6258 -0.7626
vn 0.1636 0.4650 -0.8700
vn -1.0000 -0.0000 -0.0000
vn 0.1636 0.2864 -0.9440
vn 0.1636 0.0967 -0.9818
s 0
f 9//7 41//7 10//7
f 10//8 41//8 11//8
f 11//9 41//9 12//9
f 12//10 41//10 13//10
f 13//11 41//11 14//11
f 14//12 41//12 15//12
f 15//13 41//13 16//13
f 16//14 41//14 17//14
f 17//15 41//15 18//15
f 18//16 41//16 19//16
f 19//17 41//17 20//17
f 20//18 41//18 21//18
f 21//19 41//19 22//19
f 22//20 41//20 23//20
f 23//21 41//21 24//21
f 24//22 41//22 25//22
f 25//23 41//23 26//23
f 26//24 41//24 27//24
f 27//25 41//25 28//25
f 28//26 41//26 29//26
f 29//27 41//27 30//27
f 30//28 41//28 31//28
f 31//29 41//29 32//29
f 32//30 41//30 33//30
f 33//31 41//31 34//31
f 34//32 41//32 35//32
f 35//33 41//33 36//33
f 36//34 41//34 37//34
f 37//35 41//35 38//35
f 38//36 41//36 39//36
f 24//37 32//37 40//37
f 39//38 41//38 40//38
f 40//39 41//39 9//39
f 40//37 9//37 10//37
f 10//37 11//37 12//37
f 12//37 13//37 14//37
f 14//37 15//37 16//37
f 16//37 17//37 18//37
f 18//37 19//37 20//37
f 20//37 21//37 22//37
f 22//37 23//37 24//37
f 24//37 25//37 26//37
f 26//37 27//37 28//37
f 28//37 29//37 30//37
f 30//37 31//37 32//37
f 32//37 33//37 34//37
f 34//37 35//37 36//37
f 36//37 37//37 38//37
f 38//37 39//37 40//37
f 40//37 10//37 16//37
f 10//37 12//37 16//37
f 12//37 14//37 16//37
f 16//37 18//37 24//37
f 18//37 20//37 24//37
f 20//37 22//37 24//37
f 24//37 26//37 32//37
f 26//37 28//37 32//37
f 28//37 30//37 32//37
f 32//37 34//37 40//37
f 34//37 36//37 40//37
f 36//37 38//37 40//37
f 40//37 16//37 24//37
